<svg width="1442" height="916" viewBox="0 0 1442 916" fill="none" xmlns="http://www.w3.org/2000/svg">
<g clip-path="url(#clip0)">
<path d="M-20.0001 917.018H1424V-1.01782H-20.0001V917.018Z" fill="white"/>
<path opacity="0.69" d="M1275.92 1441.38C1523.3 1557.97 1819.75 1325.81 1938.05 922.842C2056.36 519.872 1951.73 98.6877 1704.35 -17.8998C1456.97 -134.487 1160.52 97.6718 1042.21 500.642C923.905 903.612 1028.54 1324.8 1275.92 1441.38Z" fill="#F1F1F1"/>
<path opacity="0.69" d="M425.932 1123.33C597.656 1167.05 803.441 1080 885.566 928.897C967.691 777.798 895.057 619.87 723.333 576.154C551.609 532.439 345.824 619.489 263.699 770.588C181.573 921.686 254.208 1079.61 425.932 1123.33Z" fill="#F1F1F1"/>
<path opacity="0.69" d="M-91.1288 635.708C43.5575 709.323 204.959 562.734 269.371 308.292C333.784 53.8502 276.815 -212.093 142.129 -285.708C7.44263 -359.323 -153.959 -212.734 -218.371 41.7079C-282.783 296.15 -225.815 562.093 -91.1288 635.708Z" fill="#F1F1F1"/>
</g>
<defs>
<clipPath id="clip0">
<rect width="1442" height="916" fill="white" transform="translate(1442 916) rotate(-180)"/>
</clipPath>
</defs>
</svg>
