<svg width="258" height="79" viewBox="0 0 258 79" fill="none" xmlns="http://www.w3.org/2000/svg">
<g clip-path="url(#clip0)">
<path d="M360.679 106.619L61.6785 -158.381" stroke="#9DE0FA" stroke-width="7"/>
<path d="M360.679 106.619L61.6785 -158.381" stroke="#9DE0FA" stroke-width="7"/>
<path d="M349.679 118.619L50.6785 -146.381" stroke="#9DE0FA" stroke-width="7"/>
<path d="M338.679 130.619L39.6785 -134.381" stroke="#9DE0FA" stroke-width="7"/>
<path d="M327.679 142.619L28.6785 -122.381" stroke="#9DE0FA" stroke-width="7"/>
<path d="M316.679 154.619L17.6785 -110.381" stroke="#9DE0FA" stroke-width="7"/>
<path d="M305.679 166.619L6.67853 -98.3807" stroke="#9DE0FA" stroke-width="7"/>
<path d="M294.679 178.619L-4.32147 -86.3807" stroke="#9DE0FA" stroke-width="7"/>
<path d="M283.679 190.619L-15.3215 -74.3807" stroke="#9DE0FA" stroke-width="7"/>
<path d="M272.679 202.619L-26.3215 -62.3807" stroke="#9DE0FA" stroke-width="7"/>
<path d="M261.679 214.619L-37.3215 -50.3807" stroke="#9DE0FA" stroke-width="7"/>
<path d="M250.679 226.619L-48.3215 -38.3807" stroke="#9DE0FA" stroke-width="7"/>
<path d="M239.679 238.619L-59.3215 -26.3807" stroke="#9DE0FA" stroke-width="7"/>
<path d="M228.679 250.619L-70.3215 -14.3807" stroke="#9DE0FA" stroke-width="7"/>
<path d="M217.679 262.619L-81.3215 -2.38074" stroke="#9DE0FA" stroke-width="7"/>
</g>
<defs>
<clipPath id="clip0">
<rect width="258" height="79" fill="white"/>
</clipPath>
</defs>
</svg>
