<svg width="512" height="512" xmlns="http://www.w3.org/2000/svg">

 <g>
  <title>background</title>
  <rect fill="none" id="canvas_background" height="602" width="802" y="-1" x="-1"/>
 </g>
 <g>
  <title>Layer 1</title>
  <polygon id="svg_1" fill="#ECD591" points="256,106.644 259.459,115.629 252.541,115.629 "/>
  <path id="svg_2" fill="#ede7ab" d="m256,256.37l0,247.477l247.477,0l0,-247.477l-247.477,0l0,0zm134.617,178.129c14.098,0 27.467,-5.396 37.649,-15.175c6.505,-6.233 16.828,-6.026 23.072,0.479c6.244,6.494 6.026,16.828 -0.468,23.062c-16.295,15.654 -37.693,24.269 -60.254,24.269c-47.983,0 -87.025,-39.042 -87.025,-87.025c0,-47.994 39.042,-87.025 87.025,-87.025c22.561,0 43.958,8.615 60.254,24.258c6.494,6.233 6.712,16.567 0.468,23.062c-6.244,6.505 -16.567,6.712 -23.072,0.479c-10.182,-9.779 -23.551,-15.164 -37.649,-15.164c-29.991,0 -54.391,24.389 -54.391,54.391c0,29.989 24.4,54.389 54.391,54.389z"/>
  <path id="svg_3" fill="#9de0fa" d="m450.87,317.342c6.494,6.233 6.712,16.567 0.468,23.062c-6.244,6.505 -16.567,6.712 -23.072,0.479c-10.182,-9.779 -23.551,-15.164 -37.649,-15.164c-29.991,0 -54.391,24.389 -54.391,54.391c0,29.991 24.4,54.391 54.391,54.391c14.098,0 27.467,-5.396 37.649,-15.175c6.505,-6.233 16.828,-6.026 23.072,0.479c6.244,6.494 6.026,16.828 -0.468,23.062c-16.295,15.654 -37.693,24.269 -60.254,24.269c-47.983,0 -87.025,-39.042 -87.025,-87.025c0,-47.994 39.042,-87.025 87.025,-87.025c22.562,-0.003 43.959,8.613 60.254,24.256z"/>
  <path id="svg_4" fill="#9de0fa" d="m132.261,8.153l0,248.217l247.477,0l0,-248.217l-247.477,0zm183.982,209.676c-8.398,3.242 -17.851,-0.957 -21.082,-9.366l-23.149,-60.189l-32.014,-0.022l-23.16,60.21c-2.491,6.483 -8.681,10.465 -15.229,10.465c-1.947,0 -3.927,-0.359 -5.852,-1.099c-8.42,-3.231 -12.608,-12.673 -9.377,-21.082l54.391,-141.415c2.426,-6.298 8.474,-10.465 15.229,-10.465c6.755,0 12.804,4.166 15.229,10.465l54.391,141.415c3.231,8.41 -0.957,17.852 -9.377,21.083z"/>
  <path id="svg_5" fill="#fc9bc4" d="m325.62,196.747c3.231,8.409 -0.957,17.851 -9.377,21.082c-8.398,3.242 -17.851,-0.957 -21.082,-9.366l-23.149,-60.189l-32.014,-0.022l-23.16,60.21c-2.491,6.483 -8.681,10.465 -15.229,10.465c-1.947,0 -3.927,-0.359 -5.852,-1.099c-8.42,-3.231 -12.608,-12.673 -9.377,-21.082l54.391,-141.415c2.426,-6.298 8.474,-10.465 15.229,-10.465c6.755,0 12.804,4.166 15.229,10.465l54.391,141.416zm-66.161,-81.118l-3.459,-8.985l-3.459,8.985l6.918,0z"/>
  <path id="svg_6" fill="#ede7ab" d="m197.53,345.744c0,-28.49 -22.387,-51.66 -49.898,-51.66l-64.322,0c-9.007,0 -16.317,7.299 -16.317,16.317l0,141.415c0,9.007 7.31,16.317 16.317,16.317l64.322,0c27.511,0 49.898,-23.181 49.898,-51.66c0,-13.674 -5.156,-26.118 -13.554,-35.365c8.398,-9.257 13.554,-21.701 13.554,-35.364zm-49.898,89.755l-48.005,0l0,-38.052l48.005,0c9.518,0 17.264,8.528 17.264,19.026c0,10.487 -7.745,19.026 -17.264,19.026zm0,-70.74c-0.424,0 -48.005,0.054 -48.005,0.054l0,-38.095l48.005,0c9.518,0 17.264,8.528 17.264,19.026c0,10.486 -7.745,19.015 -17.264,19.015z"/>
  <g fill="#ede7ab" id="svg_7">
   <path id="svg_8" fill="#fc9bc4" d="m8.523,256.37l0,247.477l247.477,0l0,-247.477l-247.477,0l0,0zm189.007,159.103c0,28.479 -22.387,51.66 -49.898,51.66l-64.322,0c-9.007,0 -16.317,-7.31 -16.317,-16.317l0,-141.415c0,-9.018 7.31,-16.317 16.317,-16.317l64.322,0c27.511,0 49.898,23.17 49.898,51.66c0,13.663 -5.156,26.107 -13.554,35.365c8.398,9.246 13.554,21.69 13.554,35.364z"/>
   <path id="svg_9" fill="#fc9bc4" d="m147.632,325.718l-48.005,0l0,38.095c0,0 47.581,-0.054 48.005,-0.054c9.518,0 17.264,-8.528 17.264,-19.015c0,-10.498 -7.745,-19.026 -17.264,-19.026z"/>
   <path id="svg_10" fill="#fc9bc4" d="m147.632,396.447l-48.005,0l0,38.052l48.005,0c9.518,0 17.264,-8.539 17.264,-19.026c0,-10.497 -7.745,-19.026 -17.264,-19.026z"/>
  </g>
  <g id="svg_11">
   <path id="svg_12" fill="#020000" d="m390.617,475.286c24.68,0 48.085,-9.424 65.903,-26.534c4.716,-4.527 7.386,-10.621 7.519,-17.157s-2.289,-12.733 -6.816,-17.448c-4.526,-4.716 -10.619,-7.386 -17.156,-7.519c-6.511,-0.117 -12.735,2.289 -17.451,6.816c-8.659,8.313 -20.023,12.892 -32,12.892c-25.493,0 -46.232,-20.739 -46.232,-46.232c0,-25.493 20.739,-46.232 46.232,-46.232c11.977,0 23.341,4.579 32,12.891c4.716,4.527 10.924,6.947 17.447,6.817c6.538,-0.133 12.631,-2.802 17.157,-7.519c4.529,-4.716 6.95,-10.912 6.817,-17.448c-0.133,-6.537 -2.803,-12.629 -7.519,-17.156c-17.818,-17.11 -41.224,-26.535 -65.903,-26.535c-19.16,0 -37.651,5.7 -53.477,16.485c-3.724,2.537 -4.685,7.612 -2.147,11.336c2.537,3.725 7.614,4.686 11.336,2.147c13.105,-8.93 28.419,-13.651 44.288,-13.651c20.446,0 39.837,7.808 54.602,21.987c1.572,1.51 2.463,3.54 2.506,5.719c0.045,2.179 -0.763,4.244 -2.272,5.816c-1.51,1.573 -3.54,2.463 -5.719,2.506c-2.135,0.033 -4.245,-0.763 -5.817,-2.272c-11.714,-11.245 -27.091,-17.438 -43.301,-17.438c-34.49,0 -62.549,28.059 -62.549,62.549s28.059,62.549 62.549,62.549c16.209,0 31.588,-6.193 43.301,-17.439c1.573,-1.508 3.6,-2.316 5.818,-2.271c2.178,0.045 4.209,0.933 5.719,2.506c1.509,1.572 2.316,3.638 2.271,5.817c-0.044,2.179 -0.933,4.209 -2.506,5.72c-14.765,14.177 -34.155,21.986 -54.602,21.986c-43.487,0 -78.866,-35.379 -78.866,-78.866c0,-15.869 4.721,-31.183 13.651,-44.287c2.538,-3.724 1.576,-8.799 -2.147,-11.336c-3.724,-2.537 -8.799,-1.576 -11.336,2.147c-10.785,15.824 -16.485,34.316 -16.485,53.476c0.001,52.48 42.7,95.178 95.185,95.178z"/>
   <path id="svg_13" fill="#020000" d="m287.547,211.389c2.346,6.102 6.929,10.925 12.906,13.579c3.181,1.414 6.552,2.122 9.931,2.122c2.969,0 5.942,-0.547 8.794,-1.645c12.596,-4.844 18.902,-19.033 14.058,-31.63l-54.392,-141.414c-3.608,-9.386 -12.789,-15.691 -22.844,-15.691c-10.054,0 -19.235,6.305 -22.844,15.689l-7.639,19.863c-1.618,4.205 0.48,8.927 4.686,10.543c4.209,1.619 8.925,-0.481 10.543,-4.686l7.639,-19.863c1.203,-3.127 4.263,-5.23 7.615,-5.23c3.352,0 6.413,2.102 7.615,5.23l54.391,141.415c1.614,4.198 -0.487,8.929 -4.687,10.543c-2.032,0.783 -4.25,0.724 -6.24,-0.159c-1.993,-0.884 -3.52,-2.493 -4.302,-4.526l-23.15,-60.19c-1.211,-3.15 -4.237,-5.228 -7.61,-5.23l-32.016,-0.016c-3.38,0 -6.407,2.079 -7.619,5.23l-23.156,60.206c-1.204,3.131 -4.265,5.235 -7.618,5.235c-0.996,0 -1.98,-0.184 -2.925,-0.548c-2.034,-0.783 -3.642,-2.309 -4.526,-4.301c-0.884,-1.991 -0.942,-4.208 -0.159,-6.242l35.036,-91.093c1.618,-4.205 -0.48,-8.925 -4.686,-10.543c-4.21,-1.62 -8.927,0.481 -10.543,4.686l-35.036,91.093c-2.347,6.102 -2.178,12.753 0.476,18.728c2.655,5.973 7.479,10.556 13.578,12.901c2.821,1.087 5.777,1.637 8.785,1.637c10.055,0 19.237,-6.307 22.847,-15.694l21.145,-54.973l20.809,0.01l21.138,54.964z"/>
   <path id="svg_14" fill="#020000" d="m252.543,123.789c0.004,0 6.916,-0.003 6.916,-0.003c2.687,-0.001 5.201,-1.326 6.723,-3.542c1.52,-2.215 1.853,-5.038 0.888,-7.546l-3.456,-8.985c-1.212,-3.15 -4.238,-5.23 -7.615,-5.23s-6.403,2.079 -7.615,5.23l-3.457,8.989c-0.966,2.51 -0.632,5.334 0.89,7.548c1.522,2.214 4.039,3.539 6.726,3.539z"/>
   <path id="svg_15" fill="#020000" d="m99.627,371.968l46.737,0c0.212,0 0.425,-0.009 0.636,-0.024c0.21,-0.017 0.423,-0.024 0.636,-0.024c14.015,0 25.418,-12.192 25.418,-27.178c0,-14.991 -11.402,-27.188 -25.418,-27.188l-48.009,0c-4.507,0 -8.159,3.652 -8.159,8.159l0,38.097c0.001,4.506 3.652,8.158 8.159,8.158zm8.159,-38.097l39.851,0c5.018,0 9.101,4.877 9.101,10.871c0,5.99 -4.083,10.861 -9.101,10.861c-0.521,0 -1.044,0.016 -1.558,0.049l-38.293,0l0,-21.781z"/>
   <path id="svg_16" fill="#020000" d="m91.469,434.493c0,4.507 3.652,8.159 8.159,8.159l48.009,0c14.015,0 25.418,-12.192 25.418,-27.179c0,-14.99 -11.402,-27.187 -25.418,-27.187l-48.01,0c-4.507,0 -8.159,3.652 -8.159,8.159l0,38.048l0.001,0zm16.317,-29.89l39.851,0c5.018,0 9.101,4.876 9.101,10.869c0,5.99 -4.083,10.862 -9.101,10.862l-39.851,0l0,-21.731z"/>
   <path id="svg_17" fill="#020000" d="m205.689,344.741c0,-32.986 -26.042,-59.822 -58.052,-59.822l-64.327,0c-13.495,0 -24.476,10.98 -24.476,24.476c0,4.507 3.652,8.159 8.159,8.159c4.507,0 8.159,-3.652 8.159,-8.159c0,-4.499 3.659,-8.159 8.159,-8.159l64.327,0c23.013,0 41.735,19.515 41.735,43.505c0,11.148 -4.061,21.758 -11.437,29.876c-2.827,3.111 -2.827,7.862 -0.001,10.973c7.375,8.119 11.438,18.733 11.438,29.883c0,23.984 -18.722,43.496 -41.735,43.496l-64.328,0c-4.499,0 -8.159,-3.659 -8.159,-8.159l0,-108.78c0,-4.507 -3.652,-8.159 -8.159,-8.159s-8.159,3.652 -8.159,8.159l0,108.781c0,13.495 10.98,24.476 24.476,24.476l64.327,0c32.01,0 58.052,-26.832 58.052,-59.813c0,-12.825 -3.955,-25.148 -11.252,-35.369c7.296,-10.219 11.253,-22.54 11.253,-35.364z"/>
   <path id="svg_18" fill="#020000" d="m503.477,248.206l-115.58,0l0,-240.047c0,-4.507 -3.652,-8.159 -8.159,-8.159l-247.477,0c-4.507,0 -8.159,3.652 -8.159,8.159l0,240.047l-115.579,0c-4.507,0 -8.159,3.652 -8.159,8.159l0,247.477c0,4.507 3.652,8.159 8.159,8.159l494.954,0c4.507,0 8.159,-3.652 8.159,-8.159l0,-247.478c0,-4.506 -3.652,-8.158 -8.159,-8.158zm-363.057,-231.889l231.16,0l0,231.889l-231.16,0l0,-231.889l0,0zm-123.738,248.206l231.16,0l0,231.16l-231.16,0c0,0 0,-231.16 0,-231.16zm478.636,231.16l-231.16,0l0,-231.16l231.16,0l0,231.16z"/>
  </g>
  <g id="svg_19"/>
  <g id="svg_20"/>
  <g id="svg_21"/>
  <g id="svg_22"/>
  <g id="svg_23"/>
  <g id="svg_24"/>
  <g id="svg_25"/>
  <g id="svg_26"/>
  <g id="svg_27"/>
  <g id="svg_28"/>
  <g id="svg_29"/>
  <g id="svg_30"/>
  <g id="svg_31"/>
  <g id="svg_32"/>
  <g id="svg_33"/>
 </g>
</svg>