<svg width="25" height="26" viewBox="0 0 31 38" fill="none" xmlns="http://www.w3.org/2000/svg">
<path d="M14.3684 20.6658C9.78039 18.4466 7.85323 12.9086 10.0724 8.32061C12.2916 3.73265 17.8296 1.80544 22.4176 4.02461C27.0056 6.24378 28.9327 11.7818 26.7135 16.3698C25.4381 19.0067 23.0565 20.8453 20.1795 21.4142C19.7242 21.5041 19.2822 21.208 19.1922 20.7529C19.1022 20.2976 19.3983 19.8556 19.8535 19.7656C22.2081 19.3001 24.1571 17.7956 25.2007 15.638C27.0164 11.8842 25.4396 7.35311 21.6859 5.53744C17.9321 3.72176 13.4009 5.29854 11.5853 9.0523C9.76959 12.8061 11.3463 17.3372 15.1001 19.1529C15.5179 19.355 15.6927 19.8574 15.4906 20.2752C15.2886 20.693 14.7861 20.8679 14.3684 20.6658Z" fill="#6b6b6b"/>
<path d="M13.8668 11.0894C13.449 10.8873 13.2742 10.3849 13.4762 9.96707C14.7876 7.25599 18.0601 6.11721 20.7712 7.42855C21.1889 7.63063 21.3638 8.13304 21.1617 8.55084C20.9596 8.96863 20.4572 9.14346 20.0394 8.94138C18.1625 8.03354 15.8969 8.82189 14.9891 10.6988C14.787 11.1166 14.2846 11.2914 13.8668 11.0894Z"  fill="#6b6b6b"/>
<path d="M12.7217 24.0702C12.3039 23.8681 12.129 23.3657 12.3311 22.9479L13.9778 19.5435C14.1799 19.1257 14.6823 18.9509 15.1001 19.153C15.5179 19.3551 15.6927 19.8575 15.4906 20.2753L13.844 23.6797C13.6419 24.0975 13.1395 24.2723 12.7217 24.0702Z" fill="#6b6b6b"/>
<path d="M8.31929 33.1685C6.60928 32.3414 5.89096 30.2772 6.71808 28.5672L9.86466 22.0619C10.0667 21.6441 10.5692 21.4693 10.9869 21.6714L15.6767 23.9398C16.0945 24.1419 16.2694 24.6443 16.0673 25.0621L12.9207 31.5674C12.0935 33.2774 10.0294 33.9957 8.31929 33.1685ZM11.0116 23.5501L8.23094 29.2989C7.80726 30.1748 8.17515 31.232 9.05106 31.6557C9.92698 32.0793 10.9842 31.7114 11.4078 30.8355L14.1885 25.0867L11.0116 23.5501Z"  fill="#6b6b6b"/>
</svg>
